<svg width="1080" height="515" viewBox="0 0 1080 515" fill="none" xmlns="http://www.w3.org/2000/svg">
<path d="M338.885 165.62H377.698L388.231 147.242H454.117L457.026 165.62H524.257L490.19 5.6084H412.647L337.939 122.595H250.126L275.004 5.6084H211.806L177.739 165.62H338.874H338.885ZM440.896 54.0098H441.348L448.52 108.239H410.421L440.896 54.0098V54.0098Z" fill="black"/>
<path d="M613.664 171.227C684.707 171.227 720.338 152.849 728.635 113.857C734.463 86.7423 717.881 71.9457 686.954 67.241L613.895 56.0359C607.847 55.1433 606.502 52.2239 607.395 47.7398C608.739 41.0188 616.363 36.3141 635.182 36.3141C642.123 36.3141 649.075 37.2068 654.011 39.6746C659.388 41.9114 662.528 45.9545 660.963 52.4444H734.473C739.399 18.6086 714.08 0 642.816 0C590.824 0 547.799 11.2051 539.051 52.665C534.347 75.0751 543.304 93.0012 573.118 97.7058L643.037 108.459C651.333 109.804 653.118 114.508 652.226 119.213C650.661 126.837 644.161 132.214 624.439 132.214C614.578 132.214 607.857 131.09 603.593 128.853C599.561 126.385 598.437 122.804 599.34 117.428H523.142C513.281 164.495 565.053 171.216 613.685 171.216L613.664 171.227Z" fill="black"/>
<path d="M772.627 165.62H835.825L861.375 45.9551H919.868L928.385 5.6084H748.2L739.684 45.9551H798.177L772.627 165.62Z" fill="black"/>
<path d="M206.722 288.308C212.551 261.193 195.969 246.397 165.042 241.692L91.9831 230.487C85.9342 229.594 84.59 226.675 85.4826 222.191C86.8268 215.47 94.4509 210.765 113.27 210.765C120.211 210.765 127.163 211.658 132.099 214.126C137.475 216.363 140.615 220.406 139.051 226.896H212.561C212.887 224.659 213.076 222.495 213.128 220.395H256.961L231.411 340.07H294.609L320.159 220.395H370.23L357.723 279.34C346.739 330.209 374.305 345.678 439.299 345.678C504.292 345.678 538.128 330.22 549.113 279.34L570.179 180.059H506.981L486.366 276.872C481.882 297.487 468.661 303.987 448.046 303.987C427.432 303.987 416.899 297.487 421.373 276.872L441.987 180.059H206.974L203.866 194.782C191.138 181.498 164.716 174.451 120.894 174.451C68.9008 174.451 25.8762 185.656 17.1285 227.116C12.4238 249.526 21.3816 267.452 51.1953 272.157L121.114 282.911C129.41 284.255 131.196 288.959 130.303 293.664C128.738 301.288 122.238 306.665 102.516 306.665C92.6552 306.665 85.9342 305.541 81.6706 303.304C77.638 300.837 76.5144 297.256 77.4175 291.879H1.2187C-8.64219 338.946 43.1301 345.667 91.7625 345.667C162.805 345.667 198.437 327.29 206.733 288.298L206.722 288.308Z" fill="black"/>
<path d="M705.533 180.057H582.497L548.431 340.069H672.81C725.927 340.069 759.542 316.314 771.419 260.058C783.968 201.113 759.763 180.047 705.533 180.047V180.057ZM705.533 260.068C700.156 285.398 685.36 299.732 656.459 299.732H620.156L637.189 220.394H673.493C702.403 220.394 710.92 234.739 705.543 260.058L705.533 260.068Z" fill="black"/>
<path d="M863.327 180.059H800.129L766.062 340.07H829.26L863.327 180.059Z" fill="black"/>
<path d="M985.985 174.46C947.665 174.46 876.171 177.148 858.466 260.068C840.76 342.988 911.351 345.676 949.682 345.676C988.012 345.676 1059.5 342.988 1077.2 260.068C1094.91 177.148 1024.32 174.46 985.985 174.46V174.46ZM1009.96 260.068C1003.01 292.56 983.969 305.34 958.188 305.34C932.407 305.34 918.744 292.57 925.696 260.068C932.648 227.576 951.687 214.796 977.469 214.796C1003.25 214.796 1016.91 227.566 1009.96 260.068Z" fill="black"/>
<path d="M689.685 454.043L697.971 415.051H598.69L603.405 393.544H710.3L718.596 354.541H561.021H548.493H491.543L434.405 457.183H433.953L420.732 354.541H372.005H351.254H197.071L163.015 514.552H333.107L341.403 475.56H234.498L238.982 454.043H338.263L346.549 415.051H247.279L251.983 393.544H360.432L388.902 514.552H455.24L542.549 382.496L514.426 514.552H684.529L692.815 475.56H585.92L590.404 454.043H689.685Z" fill="black"/>
<path d="M902.247 360.369C894.402 356.116 883.869 354.541 865.712 354.541H732.595L698.528 514.552H761.726L772.259 465.248H817.08C828.736 465.248 831.194 472.42 829.408 484.297C826.499 502.896 824.924 509.848 826.268 514.552H895.295C892.386 509.616 890.59 502.896 891.483 495.723L896.187 460.764C897.983 446.87 892.155 438.805 883.186 436.117L883.407 435.665C902.908 430.288 912.538 414.147 915.678 399.13C919.49 381.645 912.99 366.187 902.236 360.359L902.247 360.369ZM846.221 409.894C844.205 419.976 837.925 424.911 825.607 424.911H780.786L787.287 394.877H831.215C841.748 394.877 848.92 397.786 846.232 409.894H846.221Z" fill="black"/>
</svg>
